<mxfile host="app.diagrams.net" modified="2022-06-25T11:05:13.423Z" agent="5.0 (Windows NT 10.0; Win64; x64) AppleWebKit/537.36 (KHTML, like Gecko) Chrome/102.0.0.0 Safari/537.36" etag="GJVDswu9oYd2zNWzluA1" version="20.0.3" type="github">
  <diagram id="KQOMElOQD3AwJY751B6_" name="Page-1">
    <mxGraphModel dx="1421" dy="866" grid="1" gridSize="10" guides="1" tooltips="1" connect="1" arrows="1" fold="1" page="1" pageScale="1" pageWidth="827" pageHeight="1169" math="0" shadow="0">
      <root>
        <mxCell id="0" />
        <mxCell id="1" parent="0" />
        <mxCell id="D90fb7c3y0i_6Gm7GSfD-1" value="&lt;span style=&quot;font-size: 26px;&quot;&gt;Insert Node(n)&lt;/span&gt;" style="text;html=1;align=center;verticalAlign=middle;resizable=0;points=[];autosize=1;strokeColor=none;fillColor=none;fontSize=26;" vertex="1" parent="1">
          <mxGeometry x="-145" y="35.000000000000114" width="190" height="40" as="geometry" />
        </mxCell>
        <mxCell id="D90fb7c3y0i_6Gm7GSfD-2" style="edgeStyle=orthogonalEdgeStyle;rounded=0;orthogonalLoop=1;jettySize=auto;html=1;exitX=0.5;exitY=1;exitDx=0;exitDy=0;fontSize=24;entryX=0.5;entryY=0;entryDx=0;entryDy=0;endArrow=classic;endFill=0;strokeColor=#000000;strokeWidth=1;" edge="1" source="D90fb7c3y0i_6Gm7GSfD-3" target="D90fb7c3y0i_6Gm7GSfD-5" parent="1">
          <mxGeometry relative="1" as="geometry">
            <mxPoint x="32.5" y="210" as="targetPoint" />
          </mxGeometry>
        </mxCell>
        <mxCell id="D90fb7c3y0i_6Gm7GSfD-3" value="Початок" style="ellipse;whiteSpace=wrap;html=1;fontSize=16;strokeWidth=1;" vertex="1" parent="1">
          <mxGeometry x="-10" y="140" width="85" height="40" as="geometry" />
        </mxCell>
        <mxCell id="D90fb7c3y0i_6Gm7GSfD-4" style="edgeStyle=orthogonalEdgeStyle;rounded=0;orthogonalLoop=1;jettySize=auto;html=1;exitX=0.5;exitY=1;exitDx=0;exitDy=0;fontSize=11;endArrow=none;endFill=0;strokeColor=#000000;strokeWidth=1;" edge="1" source="D90fb7c3y0i_6Gm7GSfD-5" parent="1" target="D90fb7c3y0i_6Gm7GSfD-7">
          <mxGeometry relative="1" as="geometry">
            <mxPoint x="32.52941176470631" y="320" as="targetPoint" />
          </mxGeometry>
        </mxCell>
        <mxCell id="D90fb7c3y0i_6Gm7GSfD-5" value="&lt;div style=&quot;font-size: 17px;&quot;&gt;n.Color = RED&lt;/div&gt;" style="rounded=1;whiteSpace=wrap;html=1;sketch=0;fontSize=17;strokeWidth=1;" vertex="1" parent="1">
          <mxGeometry x="-50" y="230" width="165" height="40" as="geometry" />
        </mxCell>
        <mxCell id="D90fb7c3y0i_6Gm7GSfD-8" style="edgeStyle=orthogonalEdgeStyle;rounded=0;orthogonalLoop=1;jettySize=auto;html=1;exitX=0.5;exitY=1;exitDx=0;exitDy=0;endArrow=none;endFill=0;entryX=0.5;entryY=0;entryDx=0;entryDy=0;" edge="1" parent="1" source="D90fb7c3y0i_6Gm7GSfD-7" target="D90fb7c3y0i_6Gm7GSfD-11">
          <mxGeometry relative="1" as="geometry">
            <mxPoint x="29.769230769230717" y="370" as="targetPoint" />
            <Array as="points">
              <mxPoint x="30" y="380" />
            </Array>
          </mxGeometry>
        </mxCell>
        <mxCell id="D90fb7c3y0i_6Gm7GSfD-7" value="p=n.parent" style="rounded=1;whiteSpace=wrap;html=1;fontSize=15;" vertex="1" parent="1">
          <mxGeometry x="-70" y="305" width="200" height="30" as="geometry" />
        </mxCell>
        <mxCell id="D90fb7c3y0i_6Gm7GSfD-9" value="ТАК" style="edgeStyle=orthogonalEdgeStyle;rounded=0;orthogonalLoop=1;jettySize=auto;html=1;exitX=0;exitY=0.5;exitDx=0;exitDy=0;fontFamily=Helvetica;fontSize=18;fontColor=default;endArrow=classicThin;endFill=0;strokeWidth=1;" edge="1" source="D90fb7c3y0i_6Gm7GSfD-11" parent="1" target="D90fb7c3y0i_6Gm7GSfD-12">
          <mxGeometry relative="1" as="geometry">
            <mxPoint x="-127.53999999999999" y="480" as="targetPoint" />
          </mxGeometry>
        </mxCell>
        <mxCell id="D90fb7c3y0i_6Gm7GSfD-10" value="НІ" style="edgeStyle=orthogonalEdgeStyle;rounded=0;orthogonalLoop=1;jettySize=auto;html=1;exitX=1;exitY=0.5;exitDx=0;exitDy=0;fontFamily=Helvetica;fontSize=18;fontColor=default;endArrow=classic;endFill=0;strokeWidth=1;" edge="1" source="D90fb7c3y0i_6Gm7GSfD-11" parent="1" target="D90fb7c3y0i_6Gm7GSfD-14">
          <mxGeometry relative="1" as="geometry">
            <mxPoint x="192.46000000000024" y="480" as="targetPoint" />
          </mxGeometry>
        </mxCell>
        <mxCell id="D90fb7c3y0i_6Gm7GSfD-11" value="p.color == BLACK" style="rhombus;whiteSpace=wrap;html=1;rounded=1;sketch=0;fontFamily=Helvetica;fontSize=18;fontColor=default;strokeColor=default;fillColor=default;" vertex="1" parent="1">
          <mxGeometry x="-70" y="380" width="187.54" height="70" as="geometry" />
        </mxCell>
        <mxCell id="D90fb7c3y0i_6Gm7GSfD-12" value="&lt;font style=&quot;font-size: 25px&quot;&gt;кінець&lt;/font&gt;" style="ellipse;whiteSpace=wrap;html=1;rounded=1;sketch=0;fontSize=12;fontFamily=Helvetica;fontColor=default;strokeColor=default;fillColor=default;" vertex="1" parent="1">
          <mxGeometry x="-191.37499999999997" y="447.5" width="127.67" height="65" as="geometry" />
        </mxCell>
        <mxCell id="D90fb7c3y0i_6Gm7GSfD-15" style="edgeStyle=orthogonalEdgeStyle;rounded=0;orthogonalLoop=1;jettySize=auto;html=1;exitX=0.5;exitY=1;exitDx=0;exitDy=0;endArrow=open;endFill=0;" edge="1" parent="1" source="D90fb7c3y0i_6Gm7GSfD-14" target="D90fb7c3y0i_6Gm7GSfD-16">
          <mxGeometry relative="1" as="geometry">
            <mxPoint x="192.8461538461538" y="520" as="targetPoint" />
          </mxGeometry>
        </mxCell>
        <mxCell id="D90fb7c3y0i_6Gm7GSfD-14" value="FixColoring(p)" style="shape=process;whiteSpace=wrap;html=1;backgroundOutline=1;fontSize=15;rounded=1;" vertex="1" parent="1">
          <mxGeometry x="129.96000000000026" y="465" width="125" height="30" as="geometry" />
        </mxCell>
        <mxCell id="D90fb7c3y0i_6Gm7GSfD-16" value="&lt;font style=&quot;font-size: 31px&quot;&gt;1&lt;/font&gt;" style="ellipse;whiteSpace=wrap;html=1;aspect=fixed;rounded=1;sketch=0;fontFamily=Helvetica;fontSize=16;fontColor=default;strokeColor=default;fillColor=default;" vertex="1" parent="1">
          <mxGeometry x="152.45615384615382" y="530" width="80" height="80" as="geometry" />
        </mxCell>
        <mxCell id="D90fb7c3y0i_6Gm7GSfD-18" style="edgeStyle=orthogonalEdgeStyle;rounded=0;orthogonalLoop=1;jettySize=auto;html=1;exitX=0.5;exitY=1;exitDx=0;exitDy=0;entryX=0;entryY=0;entryDx=0;entryDy=0;endArrow=open;endFill=0;" edge="1" parent="1" source="D90fb7c3y0i_6Gm7GSfD-17" target="D90fb7c3y0i_6Gm7GSfD-12">
          <mxGeometry relative="1" as="geometry" />
        </mxCell>
        <mxCell id="D90fb7c3y0i_6Gm7GSfD-17" value="&lt;font style=&quot;font-size: 31px&quot;&gt;1&lt;/font&gt;" style="ellipse;whiteSpace=wrap;html=1;aspect=fixed;rounded=1;sketch=0;fontFamily=Helvetica;fontSize=16;fontColor=default;strokeColor=default;fillColor=default;" vertex="1" parent="1">
          <mxGeometry x="-230" y="335" width="52" height="52" as="geometry" />
        </mxCell>
        <mxCell id="D90fb7c3y0i_6Gm7GSfD-19" value="&lt;span style=&quot;font-size: 25px;&quot;&gt;FixColoring(Node p)&lt;/span&gt;" style="text;html=1;align=center;verticalAlign=middle;resizable=0;points=[];autosize=1;strokeColor=none;fillColor=none;fontSize=24;" vertex="1" parent="1">
          <mxGeometry x="-135" y="650" width="250" height="40" as="geometry" />
        </mxCell>
        <mxCell id="D90fb7c3y0i_6Gm7GSfD-20" style="edgeStyle=orthogonalEdgeStyle;rounded=0;orthogonalLoop=1;jettySize=auto;html=1;exitX=0.5;exitY=1;exitDx=0;exitDy=0;fontSize=24;entryX=0.5;entryY=0;entryDx=0;entryDy=0;endArrow=open;endFill=0;" edge="1" source="D90fb7c3y0i_6Gm7GSfD-21" target="D90fb7c3y0i_6Gm7GSfD-23" parent="1">
          <mxGeometry relative="1" as="geometry">
            <mxPoint x="-30" y="780" as="targetPoint" />
          </mxGeometry>
        </mxCell>
        <mxCell id="D90fb7c3y0i_6Gm7GSfD-21" value="Початок" style="ellipse;whiteSpace=wrap;html=1;fontSize=16;strokeWidth=1;" vertex="1" parent="1">
          <mxGeometry x="-72.49999999999977" y="709.9999999999999" width="85" height="40" as="geometry" />
        </mxCell>
        <mxCell id="D90fb7c3y0i_6Gm7GSfD-25" style="edgeStyle=orthogonalEdgeStyle;rounded=0;orthogonalLoop=1;jettySize=auto;html=1;exitX=0.5;exitY=1;exitDx=0;exitDy=0;fontSize=26;endArrow=none;endFill=0;entryX=0.5;entryY=0;entryDx=0;entryDy=0;" edge="1" parent="1" source="D90fb7c3y0i_6Gm7GSfD-23" target="D90fb7c3y0i_6Gm7GSfD-28">
          <mxGeometry relative="1" as="geometry">
            <mxPoint x="-30.230769230769283" y="870" as="targetPoint" />
            <Array as="points" />
          </mxGeometry>
        </mxCell>
        <mxCell id="D90fb7c3y0i_6Gm7GSfD-23" value="pp=p.parent" style="rounded=1;whiteSpace=wrap;html=1;sketch=0;fontSize=24;" vertex="1" parent="1">
          <mxGeometry x="-112.5" y="800" width="165" height="40" as="geometry" />
        </mxCell>
        <mxCell id="D90fb7c3y0i_6Gm7GSfD-26" value="no" style="edgeStyle=orthogonalEdgeStyle;rounded=0;orthogonalLoop=1;jettySize=auto;html=1;exitX=0;exitY=0.5;exitDx=0;exitDy=0;fontFamily=Helvetica;fontSize=18;fontColor=default;endArrow=classicThin;endFill=0;strokeWidth=1;" edge="1" source="D90fb7c3y0i_6Gm7GSfD-28" parent="1" target="D90fb7c3y0i_6Gm7GSfD-29">
          <mxGeometry relative="1" as="geometry">
            <mxPoint x="-190.04" y="970" as="targetPoint" />
          </mxGeometry>
        </mxCell>
        <mxCell id="D90fb7c3y0i_6Gm7GSfD-27" value="yes" style="edgeStyle=orthogonalEdgeStyle;rounded=0;orthogonalLoop=1;jettySize=auto;html=1;exitX=1;exitY=0.5;exitDx=0;exitDy=0;fontFamily=Helvetica;fontSize=18;fontColor=default;endArrow=classic;endFill=0;strokeWidth=1;" edge="1" source="D90fb7c3y0i_6Gm7GSfD-28" parent="1" target="D90fb7c3y0i_6Gm7GSfD-30">
          <mxGeometry relative="1" as="geometry">
            <mxPoint x="129.96000000000024" y="970" as="targetPoint" />
          </mxGeometry>
        </mxCell>
        <mxCell id="D90fb7c3y0i_6Gm7GSfD-28" value="pp.left ==p" style="rhombus;whiteSpace=wrap;html=1;rounded=1;sketch=0;fontFamily=Helvetica;fontSize=18;fontColor=default;strokeColor=default;fillColor=default;" vertex="1" parent="1">
          <mxGeometry x="-94.99999999999999" y="880" width="130" height="70" as="geometry" />
        </mxCell>
        <mxCell id="D90fb7c3y0i_6Gm7GSfD-31" style="edgeStyle=orthogonalEdgeStyle;rounded=0;orthogonalLoop=1;jettySize=auto;html=1;exitX=0.5;exitY=1;exitDx=0;exitDy=0;fontSize=19;endArrow=none;endFill=0;entryX=0.5;entryY=0;entryDx=0;entryDy=0;" edge="1" parent="1" source="D90fb7c3y0i_6Gm7GSfD-29" target="D90fb7c3y0i_6Gm7GSfD-35">
          <mxGeometry relative="1" as="geometry">
            <mxPoint x="-30" y="1050" as="targetPoint" />
          </mxGeometry>
        </mxCell>
        <mxCell id="D90fb7c3y0i_6Gm7GSfD-29" value="c = pp.left" style="rounded=1;whiteSpace=wrap;html=1;fontSize=19;" vertex="1" parent="1">
          <mxGeometry x="-245.03999999999996" y="955" width="110" height="30" as="geometry" />
        </mxCell>
        <mxCell id="D90fb7c3y0i_6Gm7GSfD-32" style="edgeStyle=orthogonalEdgeStyle;rounded=0;orthogonalLoop=1;jettySize=auto;html=1;exitX=0.5;exitY=1;exitDx=0;exitDy=0;fontSize=19;endArrow=blockThin;endFill=1;entryX=0.5;entryY=0;entryDx=0;entryDy=0;" edge="1" parent="1" source="D90fb7c3y0i_6Gm7GSfD-30" target="D90fb7c3y0i_6Gm7GSfD-35">
          <mxGeometry relative="1" as="geometry">
            <mxPoint x="-30" y="1050" as="targetPoint" />
          </mxGeometry>
        </mxCell>
        <mxCell id="D90fb7c3y0i_6Gm7GSfD-30" value="&lt;span style=&quot;font-size: 19px;&quot;&gt;c = pp.right&lt;/span&gt;" style="rounded=1;whiteSpace=wrap;html=1;fontSize=11;" vertex="1" parent="1">
          <mxGeometry x="74.96000000000026" y="955" width="110" height="30" as="geometry" />
        </mxCell>
        <mxCell id="D90fb7c3y0i_6Gm7GSfD-33" value="no" style="edgeStyle=orthogonalEdgeStyle;rounded=0;orthogonalLoop=1;jettySize=auto;html=1;exitX=0;exitY=0.5;exitDx=0;exitDy=0;fontFamily=Helvetica;fontSize=18;fontColor=default;endArrow=classicThin;endFill=0;strokeWidth=1;" edge="1" source="D90fb7c3y0i_6Gm7GSfD-35" parent="1" target="D90fb7c3y0i_6Gm7GSfD-36">
          <mxGeometry relative="1" as="geometry">
            <mxPoint x="-190.04" y="1169" as="targetPoint" />
          </mxGeometry>
        </mxCell>
        <mxCell id="D90fb7c3y0i_6Gm7GSfD-34" value="yes" style="edgeStyle=orthogonalEdgeStyle;rounded=0;orthogonalLoop=1;jettySize=auto;html=1;exitX=1;exitY=0.5;exitDx=0;exitDy=0;fontFamily=Helvetica;fontSize=18;fontColor=default;endArrow=classic;endFill=0;strokeWidth=1;" edge="1" source="D90fb7c3y0i_6Gm7GSfD-35" parent="1" target="D90fb7c3y0i_6Gm7GSfD-37">
          <mxGeometry relative="1" as="geometry">
            <mxPoint x="129.96000000000024" y="1169" as="targetPoint" />
          </mxGeometry>
        </mxCell>
        <mxCell id="D90fb7c3y0i_6Gm7GSfD-35" value="c==NULL" style="rhombus;whiteSpace=wrap;html=1;rounded=1;sketch=0;fontFamily=Helvetica;fontSize=18;fontColor=default;strokeColor=default;fillColor=default;" vertex="1" parent="1">
          <mxGeometry x="-94.99999999999999" y="1060" width="130" height="70" as="geometry" />
        </mxCell>
        <mxCell id="D90fb7c3y0i_6Gm7GSfD-38" style="edgeStyle=orthogonalEdgeStyle;rounded=0;orthogonalLoop=1;jettySize=auto;html=1;exitX=0.5;exitY=1;exitDx=0;exitDy=0;fontSize=17;endArrow=blockThin;endFill=1;entryX=0.5;entryY=0;entryDx=0;entryDy=0;" edge="1" parent="1" source="D90fb7c3y0i_6Gm7GSfD-36" target="D90fb7c3y0i_6Gm7GSfD-40">
          <mxGeometry relative="1" as="geometry">
            <mxPoint x="-20" y="1250" as="targetPoint" />
          </mxGeometry>
        </mxCell>
        <mxCell id="D90fb7c3y0i_6Gm7GSfD-36" value="FixColoring(pp)" style="shape=process;whiteSpace=wrap;html=1;backgroundOutline=1;fontSize=15;rounded=1;" vertex="1" parent="1">
          <mxGeometry x="-252.53999999999996" y="1154" width="125" height="30" as="geometry" />
        </mxCell>
        <mxCell id="D90fb7c3y0i_6Gm7GSfD-39" style="edgeStyle=orthogonalEdgeStyle;rounded=0;orthogonalLoop=1;jettySize=auto;html=1;exitX=0.5;exitY=1;exitDx=0;exitDy=0;fontSize=17;endArrow=blockThin;endFill=1;" edge="1" parent="1" source="D90fb7c3y0i_6Gm7GSfD-37" target="D90fb7c3y0i_6Gm7GSfD-40">
          <mxGeometry relative="1" as="geometry">
            <mxPoint x="-20" y="1240" as="targetPoint" />
          </mxGeometry>
        </mxCell>
        <mxCell id="D90fb7c3y0i_6Gm7GSfD-37" value="простий поворот" style="shape=process;whiteSpace=wrap;html=1;backgroundOutline=1;fontSize=17;rounded=1;" vertex="1" parent="1">
          <mxGeometry x="52.49999999999999" y="1154" width="172.54" height="36" as="geometry" />
        </mxCell>
        <mxCell id="D90fb7c3y0i_6Gm7GSfD-40" value="&lt;font style=&quot;font-size: 25px&quot;&gt;кінець&lt;/font&gt;" style="ellipse;whiteSpace=wrap;html=1;rounded=1;sketch=0;fontSize=12;fontFamily=Helvetica;fontColor=default;strokeColor=default;fillColor=default;" vertex="1" parent="1">
          <mxGeometry x="-82.67500000000001" y="1250" width="127.67" height="65" as="geometry" />
        </mxCell>
        <mxCell id="D90fb7c3y0i_6Gm7GSfD-41" style="edgeStyle=orthogonalEdgeStyle;rounded=0;orthogonalLoop=1;jettySize=auto;html=1;exitX=0.5;exitY=1;exitDx=0;exitDy=0;fontSize=24;entryX=0.5;entryY=0;entryDx=0;entryDy=0;endArrow=blockThin;endFill=1;" edge="1" source="D90fb7c3y0i_6Gm7GSfD-42" target="D90fb7c3y0i_6Gm7GSfD-44" parent="1">
          <mxGeometry relative="1" as="geometry">
            <mxPoint x="554" y="195.0000000000001" as="targetPoint" />
          </mxGeometry>
        </mxCell>
        <mxCell id="D90fb7c3y0i_6Gm7GSfD-42" value="Початок" style="ellipse;whiteSpace=wrap;html=1;fontSize=16;strokeWidth=1;" vertex="1" parent="1">
          <mxGeometry x="511.5000000000002" y="125" width="85" height="40" as="geometry" />
        </mxCell>
        <mxCell id="D90fb7c3y0i_6Gm7GSfD-46" style="edgeStyle=orthogonalEdgeStyle;rounded=0;orthogonalLoop=1;jettySize=auto;html=1;exitX=0.5;exitY=1;exitDx=0;exitDy=0;fontSize=23;endArrow=none;endFill=0;" edge="1" parent="1" source="D90fb7c3y0i_6Gm7GSfD-44" target="D90fb7c3y0i_6Gm7GSfD-47">
          <mxGeometry relative="1" as="geometry">
            <mxPoint x="554.3846153846152" y="430" as="targetPoint" />
          </mxGeometry>
        </mxCell>
        <mxCell id="D90fb7c3y0i_6Gm7GSfD-44" value="l= pp.left&lt;br&gt;r=pp.right&lt;br&gt;pp.color=RED&lt;br&gt;l.color = BLACK&lt;br&gt;r.colot = BLACK" style="rounded=1;whiteSpace=wrap;html=1;sketch=0;fontSize=24;" vertex="1" parent="1">
          <mxGeometry x="455.75" y="215" width="196.5" height="165" as="geometry" />
        </mxCell>
        <mxCell id="D90fb7c3y0i_6Gm7GSfD-45" value="&lt;span style=&quot;font-size: 23px;&quot;&gt;FixCase(Node pp)&lt;/span&gt;" style="text;html=1;align=center;verticalAlign=middle;resizable=0;points=[];autosize=1;strokeColor=none;fillColor=none;fontSize=23;" vertex="1" parent="1">
          <mxGeometry x="460" y="70.00000000000011" width="210" height="40" as="geometry" />
        </mxCell>
        <mxCell id="D90fb7c3y0i_6Gm7GSfD-48" style="edgeStyle=orthogonalEdgeStyle;rounded=0;orthogonalLoop=1;jettySize=auto;html=1;exitX=0.5;exitY=1;exitDx=0;exitDy=0;fontSize=17;endArrow=none;endFill=0;entryX=0.5;entryY=0;entryDx=0;entryDy=0;" edge="1" parent="1" source="D90fb7c3y0i_6Gm7GSfD-47" target="D90fb7c3y0i_6Gm7GSfD-51">
          <mxGeometry relative="1" as="geometry">
            <mxPoint x="554.3846153846152" y="480" as="targetPoint" />
          </mxGeometry>
        </mxCell>
        <mxCell id="D90fb7c3y0i_6Gm7GSfD-47" value="d=pp.parent" style="rounded=1;whiteSpace=wrap;html=1;fontSize=17;" vertex="1" parent="1">
          <mxGeometry x="499.38461538461524" y="415" width="110" height="30" as="geometry" />
        </mxCell>
        <mxCell id="D90fb7c3y0i_6Gm7GSfD-49" value="ТАК" style="edgeStyle=orthogonalEdgeStyle;rounded=0;orthogonalLoop=1;jettySize=auto;html=1;exitX=0;exitY=0.5;exitDx=0;exitDy=0;fontFamily=Helvetica;fontSize=18;fontColor=default;endArrow=classicThin;endFill=0;strokeWidth=1;" edge="1" source="D90fb7c3y0i_6Gm7GSfD-51" parent="1" target="D90fb7c3y0i_6Gm7GSfD-52">
          <mxGeometry relative="1" as="geometry">
            <mxPoint x="404.96" y="585" as="targetPoint" />
          </mxGeometry>
        </mxCell>
        <mxCell id="D90fb7c3y0i_6Gm7GSfD-50" value="НІ" style="edgeStyle=orthogonalEdgeStyle;rounded=0;orthogonalLoop=1;jettySize=auto;html=1;exitX=1;exitY=0.5;exitDx=0;exitDy=0;fontFamily=Helvetica;fontSize=18;fontColor=default;endArrow=classic;endFill=0;strokeWidth=1;" edge="1" source="D90fb7c3y0i_6Gm7GSfD-51" parent="1" target="D90fb7c3y0i_6Gm7GSfD-53">
          <mxGeometry relative="1" as="geometry">
            <mxPoint x="724.9600000000003" y="585" as="targetPoint" />
          </mxGeometry>
        </mxCell>
        <mxCell id="D90fb7c3y0i_6Gm7GSfD-51" value="d.color == BLACK" style="rhombus;whiteSpace=wrap;html=1;rounded=1;sketch=0;fontFamily=Helvetica;fontSize=18;fontColor=default;strokeColor=default;fillColor=default;" vertex="1" parent="1">
          <mxGeometry x="471.47999999999996" y="480" width="165.04" height="75" as="geometry" />
        </mxCell>
        <mxCell id="D90fb7c3y0i_6Gm7GSfD-52" value="&lt;font style=&quot;font-size: 25px&quot;&gt;кінець&lt;/font&gt;" style="ellipse;whiteSpace=wrap;html=1;rounded=1;sketch=0;fontSize=12;fontFamily=Helvetica;fontColor=default;strokeColor=default;fillColor=default;" vertex="1" parent="1">
          <mxGeometry x="343.81" y="560" width="127.67" height="57.5" as="geometry" />
        </mxCell>
        <mxCell id="D90fb7c3y0i_6Gm7GSfD-54" style="edgeStyle=orthogonalEdgeStyle;rounded=0;orthogonalLoop=1;jettySize=auto;html=1;exitX=0.5;exitY=1;exitDx=0;exitDy=0;fontSize=15;endArrow=blockThin;endFill=1;" edge="1" parent="1" source="D90fb7c3y0i_6Gm7GSfD-53" target="D90fb7c3y0i_6Gm7GSfD-55">
          <mxGeometry relative="1" as="geometry">
            <mxPoint x="725.1538461538462" y="640" as="targetPoint" />
          </mxGeometry>
        </mxCell>
        <mxCell id="D90fb7c3y0i_6Gm7GSfD-53" value="FixColoring(d)" style="shape=process;whiteSpace=wrap;html=1;backgroundOutline=1;fontSize=15;rounded=1;" vertex="1" parent="1">
          <mxGeometry x="662.46" y="570" width="125" height="30" as="geometry" />
        </mxCell>
        <mxCell id="D90fb7c3y0i_6Gm7GSfD-55" value="&lt;font style=&quot;font-size: 31px&quot;&gt;2&lt;/font&gt;" style="ellipse;whiteSpace=wrap;html=1;aspect=fixed;rounded=1;sketch=0;fontFamily=Helvetica;fontSize=16;fontColor=default;strokeColor=default;fillColor=default;" vertex="1" parent="1">
          <mxGeometry x="698.9638461538461" y="617.5" width="52" height="52" as="geometry" />
        </mxCell>
        <mxCell id="D90fb7c3y0i_6Gm7GSfD-57" style="edgeStyle=orthogonalEdgeStyle;rounded=0;orthogonalLoop=1;jettySize=auto;html=1;exitX=0.5;exitY=1;exitDx=0;exitDy=0;entryX=0;entryY=0;entryDx=0;entryDy=0;fontSize=15;endArrow=blockThin;endFill=1;" edge="1" parent="1" source="D90fb7c3y0i_6Gm7GSfD-56" target="D90fb7c3y0i_6Gm7GSfD-52">
          <mxGeometry relative="1" as="geometry" />
        </mxCell>
        <mxCell id="D90fb7c3y0i_6Gm7GSfD-56" value="&lt;font style=&quot;font-size: 31px&quot;&gt;2&lt;/font&gt;" style="ellipse;whiteSpace=wrap;html=1;aspect=fixed;rounded=1;sketch=0;fontFamily=Helvetica;fontSize=16;fontColor=default;strokeColor=default;fillColor=default;" vertex="1" parent="1">
          <mxGeometry x="320" y="390" width="80" height="80" as="geometry" />
        </mxCell>
        <mxCell id="D90fb7c3y0i_6Gm7GSfD-58" value="p -правий" style="text;html=1;align=center;verticalAlign=middle;resizable=0;points=[];autosize=1;strokeColor=none;fillColor=none;fontSize=15;" vertex="1" parent="1">
          <mxGeometry x="-295" y="875" width="90" height="30" as="geometry" />
        </mxCell>
        <mxCell id="D90fb7c3y0i_6Gm7GSfD-59" value="p -лівий&lt;span style=&quot;white-space: pre;&quot;&gt;	&lt;/span&gt;" style="text;html=1;align=center;verticalAlign=middle;resizable=0;points=[];autosize=1;strokeColor=none;fillColor=none;fontSize=15;" vertex="1" parent="1">
          <mxGeometry x="152.45999999999998" y="870" width="90" height="30" as="geometry" />
        </mxCell>
      </root>
    </mxGraphModel>
  </diagram>
</mxfile>
